<svg xmlns="http://www.w3.org/2000/svg" width="262" height="100" viewBox="0 0 262 100"><g transform="translate(-6815 15500)"><g transform="translate(6815 -15468)" fill="#fff" stroke="#6f7a82" stroke-width="2"><circle cx="15" cy="15" r="15" stroke="none"/><circle cx="15" cy="15" r="14" fill="none"/></g><g transform="translate(6833 -15471)" fill="#fff" stroke="#6f7a82" stroke-width="2"><circle cx="17.5" cy="17.5" r="17.5" stroke="none"/><circle cx="17.5" cy="17.5" r="16.5" fill="none"/></g><g transform="translate(6857 -15471)" fill="#fff" stroke="#6f7a82" stroke-width="2"><circle cx="20" cy="20" r="20" stroke="none"/><circle cx="20" cy="20" r="19" fill="none"/></g><g transform="translate(6877 -15473)" fill="#fff" stroke="#6f7a82" stroke-width="2"><circle cx="22.5" cy="22.5" r="22.5" stroke="none"/><circle cx="22.5" cy="22.5" r="21.5" fill="none"/></g><g transform="translate(-529 1381)"><g transform="translate(7429 -16856)" fill="#fff" stroke="#6f7a82" stroke-width="2"><circle cx="25" cy="25" r="25" stroke="none"/><circle cx="25" cy="25" r="24" fill="none"/></g><g transform="translate(7440 -16843)" fill="#6f7a82" stroke="#707070" stroke-width="1"><rect width="8" height="19" rx="2" stroke="none"/><rect x="0.5" y="0.5" width="7" height="18" rx="1.5" fill="none"/></g><g transform="translate(7460 -16843)" fill="#6f7a82" stroke="#707070" stroke-width="1"><rect width="8" height="19" rx="2" stroke="none"/><rect x="0.5" y="0.5" width="7" height="18" rx="1.5" fill="none"/></g></g><g transform="translate(6815 -15468)" fill="#fff" stroke="#6f7a82" stroke-width="2"><circle cx="15" cy="15" r="15" stroke="none"/><circle cx="15" cy="15" r="14" fill="none"/></g><g transform="translate(6833 -15471)" fill="#fff" stroke="#6f7a82" stroke-width="2"><circle cx="17.5" cy="17.5" r="17.5" stroke="none"/><circle cx="17.5" cy="17.5" r="16.5" fill="none"/></g><g transform="translate(6857 -15471)" fill="#fff" stroke="#6f7a82" stroke-width="2"><circle cx="20" cy="20" r="20" stroke="none"/><circle cx="20" cy="20" r="19" fill="none"/></g><g transform="translate(6877 -15473)" fill="#fff" stroke="#6f7a82" stroke-width="2"><circle cx="22.5" cy="22.5" r="22.5" stroke="none"/><circle cx="22.5" cy="22.5" r="21.5" fill="none"/></g><g transform="translate(-529 1381)"><g transform="translate(7429 -16856)" fill="#fff" stroke="#6f7a82" stroke-width="2"><circle cx="25" cy="25" r="25" stroke="none"/><circle cx="25" cy="25" r="24" fill="none"/></g><g transform="translate(7440 -16843)" fill="#6f7a82" stroke="#707070" stroke-width="1"><rect width="8" height="19" rx="2" stroke="none"/><rect x="0.5" y="0.5" width="7" height="18" rx="1.5" fill="none"/></g><g transform="translate(7460 -16843)" fill="#6f7a82" stroke="#707070" stroke-width="1"><rect width="8" height="19" rx="2" stroke="none"/><rect x="0.5" y="0.5" width="7" height="18" rx="1.5" fill="none"/></g></g><g transform="translate(-682 1500)"><g transform="translate(7659 -17000)" fill="#ececec" stroke="#4f402b" stroke-width="2"><circle cx="50" cy="50" r="50" stroke="none"/><circle cx="50" cy="50" r="49" fill="none"/></g><g transform="translate(7672 -16987)" fill="#fff" stroke="#707070" stroke-width="2"><circle cx="37.5" cy="37.5" r="37.5" stroke="none"/><circle cx="37.5" cy="37.5" r="36.5" fill="none"/></g></g><circle cx="7.5" cy="7.5" r="7.5" transform="translate(6997 -15440)" fill="#386845"/><circle cx="7.5" cy="7.5" r="7.5" transform="translate(7001 -15433)" fill="#386845"/><circle cx="7.5" cy="7.5" r="7.5" transform="translate(7036 -15430)" fill="#386845"/><circle cx="7.5" cy="7.5" r="7.5" transform="translate(7013 -15428)" fill="#386845"/><circle cx="7.5" cy="7.5" r="7.5" transform="translate(7031 -15461)" fill="#8ce08f"/><circle cx="7.5" cy="7.5" r="7.5" transform="translate(7013 -15460)" fill="#386845"/><circle cx="7.5" cy="7.5" r="7.5" transform="translate(7051 -15456)" fill="#8ce08f"/><circle cx="7.5" cy="7.5" r="7.5" transform="translate(7030 -15428)" fill="#5eb188"/><circle cx="7.5" cy="7.5" r="7.5" transform="translate(6989 -15451)" fill="#386845"/><circle cx="7.5" cy="7.5" r="7.5" transform="translate(7043 -15438)" fill="#8ce08f"/><circle cx="7.5" cy="7.5" r="7.5" transform="translate(7051 -15445)" fill="#5eb188"/><circle cx="7.5" cy="7.5" r="7.5" transform="translate(7036 -15441)" fill="#386845"/><circle cx="7.5" cy="7.5" r="7.5" transform="translate(7008 -15468)" fill="#8ce08f"/><circle cx="7.5" cy="7.5" r="7.5" transform="translate(7000 -15437)" fill="#5eb188"/><circle cx="7.5" cy="7.5" r="7.5" transform="translate(7040 -15471)" fill="#386845"/><circle cx="7.5" cy="7.5" r="7.5" transform="translate(7030 -15473)" fill="#8ce08f"/><circle cx="7.5" cy="7.5" r="7.5" transform="translate(7010 -15441)" fill="#5eb188"/><circle cx="7.5" cy="7.5" r="7.5" transform="translate(7032 -15450)" fill="#386845"/><circle cx="7.5" cy="7.5" r="7.5" transform="translate(7045 -15475)" fill="#8ce08f"/><circle cx="7.5" cy="7.5" r="7.5" transform="translate(7024 -15482)" fill="#5eb188"/><circle cx="7.5" cy="7.5" r="7.5" transform="translate(6999 -15459)" fill="#386845"/><circle cx="7.5" cy="7.5" r="7.5" transform="translate(7018 -15438)" fill="#8ce08f"/><circle cx="7.5" cy="7.5" r="7.5" transform="translate(7005 -15484)" fill="#5eb188"/><circle cx="7.5" cy="7.5" r="7.5" transform="translate(7022 -15469)" fill="#386845"/><circle cx="7.5" cy="7.5" r="7.5" transform="translate(7023 -15450)" fill="#8ce08f"/><circle cx="7.5" cy="7.5" r="7.5" transform="translate(7050 -15467)" fill="#5eb188"/><circle cx="7.5" cy="7.5" r="7.5" transform="translate(6991 -15445)" fill="#386845"/><circle cx="7.5" cy="7.5" r="7.5" transform="translate(7013 -15476)" fill="#8ce08f"/><circle cx="7.5" cy="7.5" r="7.5" transform="translate(7003 -15452)" fill="#5eb188"/><circle cx="7.5" cy="7.5" r="7.5" transform="translate(7021 -15481)" fill="#386845"/><circle cx="7.5" cy="7.5" r="7.5" transform="translate(6989 -15460)" fill="#8ce08f"/><circle cx="7.5" cy="7.5" r="7.5" transform="translate(7021 -15460)" fill="#5eb188"/><circle cx="7.5" cy="7.5" r="7.5" transform="translate(7027 -15438)" fill="#386845"/><circle cx="7.5" cy="7.5" r="7.5" transform="translate(6998 -15441)" fill="#8ce08f"/><circle cx="7.5" cy="7.5" r="7.5" transform="translate(7043 -15450)" fill="#5eb188"/><circle cx="7.5" cy="7.5" r="7.5" transform="translate(7043 -15460)" fill="#386845"/><circle cx="7.5" cy="7.5" r="7.5" transform="translate(7021 -15426)" fill="#8ce08f"/><circle cx="7.5" cy="7.5" r="7.5" transform="translate(7009 -15430)" fill="#5eb188"/><circle cx="7.5" cy="7.5" r="7.5" transform="translate(7011 -15450)" fill="#386845"/><circle cx="7.5" cy="7.5" r="7.5" transform="translate(6993 -15481)" fill="#8ce08f"/><circle cx="7.5" cy="7.5" r="7.5" transform="translate(7038 -15483)" fill="#5eb188"/><circle cx="7.5" cy="7.5" r="7.5" transform="translate(7001 -15474)" fill="#386845"/><circle cx="7.5" cy="7.5" r="7.5" transform="translate(7027 -15491)" fill="#8ce08f"/><circle cx="7.5" cy="7.5" r="7.5" transform="translate(6993 -15468)" fill="#5eb188"/><circle cx="7.5" cy="7.5" r="7.5" transform="translate(7014 -15489)" fill="#8ce08f"/><circle cx="7.5" cy="7.5" r="7.5" transform="translate(7023 -15452)" fill="#c16e84"/><circle cx="7.5" cy="7.5" r="7.5" transform="translate(7003 -15478)" fill="#c16e84"/><circle cx="7.5" cy="7.5" r="7.5" transform="translate(7038 -15435)" fill="#c16e84"/><circle cx="7.5" cy="7.5" r="7.5" transform="translate(7040 -15471)" fill="#c16e84"/><circle cx="7.5" cy="7.5" r="7.5" transform="translate(7007 -15433)" fill="#c16e84"/><circle cx="7.5" cy="7.5" r="7.5" transform="translate(7024 -15484)" fill="#c16e84"/><circle cx="7.5" cy="7.5" r="7.5" transform="translate(6999 -15461)" fill="#c16e84"/></g></svg>