<svg xmlns="http://www.w3.org/2000/svg" width="257" height="100" viewBox="0 0 257 100"><g transform="translate(-6820 15627)"><g transform="translate(6820 -15577)" fill="#fff" stroke="#6f7a82" stroke-width="2"><circle cx="15" cy="15" r="15" stroke="none"/><circle cx="15" cy="15" r="14" fill="none"/></g><g transform="translate(6833 -15594)" fill="#fff" stroke="#6f7a82" stroke-width="2"><circle cx="17.5" cy="17.5" r="17.5" stroke="none"/><circle cx="17.5" cy="17.5" r="16.5" fill="none"/></g><g transform="translate(6857 -15594)" fill="#fff" stroke="#6f7a82" stroke-width="2"><circle cx="20" cy="20" r="20" stroke="none"/><circle cx="20" cy="20" r="19" fill="none"/></g><g transform="translate(6877 -15584)" fill="#fff" stroke="#6f7a82" stroke-width="2"><circle cx="22.5" cy="22.5" r="22.5" stroke="none"/><circle cx="22.5" cy="22.5" r="21.5" fill="none"/></g><g transform="translate(6891 -15609)" fill="#fff" stroke="#6f7a82" stroke-width="2"><circle cx="25" cy="25" r="25" stroke="none"/><circle cx="25" cy="25" r="24" fill="none"/></g><g transform="translate(6902 -15596)" fill="#6f7a82" stroke="#707070" stroke-width="1"><rect width="8" height="19" rx="2" stroke="none"/><rect x="0.5" y="0.5" width="7" height="18" rx="1.5" fill="none"/></g><g transform="translate(6922 -15596)" fill="#6f7a82" stroke="#707070" stroke-width="1"><rect width="8" height="19" rx="2" stroke="none"/><rect x="0.5" y="0.5" width="7" height="18" rx="1.5" fill="none"/></g><g transform="translate(6820 -15577)" fill="#fff" stroke="#6f7a82" stroke-width="2"><circle cx="15" cy="15" r="15" stroke="none"/><circle cx="15" cy="15" r="14" fill="none"/></g><g transform="translate(6833 -15594)" fill="#fff" stroke="#6f7a82" stroke-width="2"><circle cx="17.5" cy="17.5" r="17.5" stroke="none"/><circle cx="17.5" cy="17.5" r="16.5" fill="none"/></g><g transform="translate(6857 -15594)" fill="#fff" stroke="#6f7a82" stroke-width="2"><circle cx="20" cy="20" r="20" stroke="none"/><circle cx="20" cy="20" r="19" fill="none"/></g><g transform="translate(6877 -15584)" fill="#fff" stroke="#6f7a82" stroke-width="2"><circle cx="22.5" cy="22.5" r="22.5" stroke="none"/><circle cx="22.5" cy="22.5" r="21.5" fill="none"/></g><g transform="translate(6891 -15609)" fill="#fff" stroke="#6f7a82" stroke-width="2"><circle cx="25" cy="25" r="25" stroke="none"/><circle cx="25" cy="25" r="24" fill="none"/></g><g transform="translate(6902 -15596)" fill="#6f7a82" stroke="#707070" stroke-width="1"><rect width="8" height="19" rx="2" stroke="none"/><rect x="0.5" y="0.5" width="7" height="18" rx="1.5" fill="none"/></g><g transform="translate(6922 -15596)" fill="#6f7a82" stroke="#707070" stroke-width="1"><rect width="8" height="19" rx="2" stroke="none"/><rect x="0.5" y="0.5" width="7" height="18" rx="1.5" fill="none"/></g><g transform="translate(-682 1373)"><g transform="translate(7659 -17000)" fill="#ececec" stroke="#4f402b" stroke-width="2"><circle cx="50" cy="50" r="50" stroke="none"/><circle cx="50" cy="50" r="49" fill="none"/></g><g transform="translate(7672 -16987)" fill="#fff" stroke="#707070" stroke-width="2"><circle cx="37.5" cy="37.5" r="37.5" stroke="none"/><circle cx="37.5" cy="37.5" r="36.5" fill="none"/></g></g><circle cx="7.5" cy="7.5" r="7.5" transform="translate(6997 -15567)" fill="#386845"/><circle cx="7.5" cy="7.5" r="7.5" transform="translate(7001 -15560)" fill="#386845"/><circle cx="7.5" cy="7.5" r="7.5" transform="translate(7036 -15557)" fill="#386845"/><circle cx="7.5" cy="7.5" r="7.5" transform="translate(7013 -15555)" fill="#386845"/><circle cx="7.5" cy="7.5" r="7.5" transform="translate(7031 -15588)" fill="#8ce08f"/><circle cx="7.5" cy="7.5" r="7.5" transform="translate(7013 -15587)" fill="#386845"/><circle cx="7.5" cy="7.5" r="7.5" transform="translate(7051 -15583)" fill="#8ce08f"/><circle cx="7.5" cy="7.5" r="7.5" transform="translate(7030 -15555)" fill="#5eb188"/><circle cx="7.5" cy="7.5" r="7.5" transform="translate(6989 -15578)" fill="#386845"/><circle cx="7.5" cy="7.5" r="7.5" transform="translate(7043 -15565)" fill="#8ce08f"/><circle cx="7.5" cy="7.5" r="7.5" transform="translate(7051 -15572)" fill="#5eb188"/><circle cx="7.5" cy="7.5" r="7.5" transform="translate(7036 -15568)" fill="#386845"/><circle cx="7.5" cy="7.5" r="7.5" transform="translate(7008 -15595)" fill="#8ce08f"/><circle cx="7.5" cy="7.5" r="7.5" transform="translate(7000 -15564)" fill="#5eb188"/><circle cx="7.5" cy="7.5" r="7.5" transform="translate(7040 -15598)" fill="#386845"/><circle cx="7.5" cy="7.5" r="7.5" transform="translate(7030 -15600)" fill="#8ce08f"/><circle cx="7.5" cy="7.5" r="7.5" transform="translate(7010 -15568)" fill="#5eb188"/><circle cx="7.5" cy="7.5" r="7.5" transform="translate(7032 -15577)" fill="#386845"/><circle cx="7.5" cy="7.5" r="7.5" transform="translate(7045 -15602)" fill="#8ce08f"/><circle cx="7.5" cy="7.5" r="7.5" transform="translate(7024 -15609)" fill="#5eb188"/><circle cx="7.5" cy="7.5" r="7.5" transform="translate(6999 -15586)" fill="#386845"/><circle cx="7.5" cy="7.5" r="7.5" transform="translate(7018 -15565)" fill="#8ce08f"/><circle cx="7.5" cy="7.5" r="7.5" transform="translate(7005 -15611)" fill="#5eb188"/><circle cx="7.5" cy="7.5" r="7.5" transform="translate(7022 -15596)" fill="#386845"/><circle cx="7.5" cy="7.5" r="7.5" transform="translate(7023 -15577)" fill="#8ce08f"/><circle cx="7.5" cy="7.5" r="7.5" transform="translate(7050 -15594)" fill="#5eb188"/><circle cx="7.5" cy="7.5" r="7.5" transform="translate(6991 -15572)" fill="#386845"/><circle cx="7.5" cy="7.5" r="7.5" transform="translate(7013 -15603)" fill="#8ce08f"/><circle cx="7.5" cy="7.5" r="7.5" transform="translate(7003 -15579)" fill="#5eb188"/><circle cx="7.5" cy="7.5" r="7.5" transform="translate(7021 -15608)" fill="#386845"/><circle cx="7.5" cy="7.5" r="7.5" transform="translate(6989 -15587)" fill="#8ce08f"/><circle cx="7.5" cy="7.5" r="7.5" transform="translate(7021 -15587)" fill="#5eb188"/><circle cx="7.5" cy="7.5" r="7.5" transform="translate(7027 -15565)" fill="#386845"/><circle cx="7.5" cy="7.5" r="7.5" transform="translate(6998 -15568)" fill="#8ce08f"/><circle cx="7.5" cy="7.5" r="7.5" transform="translate(7043 -15577)" fill="#5eb188"/><circle cx="7.5" cy="7.5" r="7.5" transform="translate(7043 -15587)" fill="#386845"/><circle cx="7.5" cy="7.5" r="7.5" transform="translate(7021 -15553)" fill="#8ce08f"/><circle cx="7.5" cy="7.5" r="7.5" transform="translate(7009 -15557)" fill="#5eb188"/><circle cx="7.5" cy="7.5" r="7.5" transform="translate(7011 -15577)" fill="#386845"/><circle cx="7.5" cy="7.5" r="7.5" transform="translate(6993 -15608)" fill="#8ce08f"/><circle cx="7.5" cy="7.5" r="7.5" transform="translate(7038 -15610)" fill="#5eb188"/><circle cx="7.5" cy="7.5" r="7.5" transform="translate(7001 -15601)" fill="#386845"/><circle cx="7.5" cy="7.5" r="7.5" transform="translate(7027 -15618)" fill="#8ce08f"/><circle cx="7.5" cy="7.5" r="7.5" transform="translate(6993 -15595)" fill="#5eb188"/><circle cx="7.5" cy="7.5" r="7.5" transform="translate(7014 -15616)" fill="#8ce08f"/><circle cx="7.5" cy="7.5" r="7.5" transform="translate(7023 -15579)" fill="#c16e84"/><circle cx="7.5" cy="7.5" r="7.5" transform="translate(7003 -15605)" fill="#c16e84"/><circle cx="7.5" cy="7.5" r="7.5" transform="translate(7038 -15562)" fill="#c16e84"/><circle cx="7.5" cy="7.5" r="7.5" transform="translate(7040 -15598)" fill="#c16e84"/><circle cx="7.5" cy="7.5" r="7.5" transform="translate(7007 -15560)" fill="#c16e84"/><circle cx="7.5" cy="7.5" r="7.5" transform="translate(7024 -15611)" fill="#c16e84"/><circle cx="7.5" cy="7.5" r="7.5" transform="translate(6999 -15588)" fill="#c16e84"/></g></svg>