<svg xmlns="http://www.w3.org/2000/svg" width="121" height="70" viewBox="0 0 121 70"><g transform="translate(-6820 15609)"><g transform="translate(6820 -15577)" fill="#fff" stroke="#6f7a82" stroke-width="2"><circle cx="15" cy="15" r="15" stroke="none"/><circle cx="15" cy="15" r="14" fill="none"/></g><g transform="translate(6833 -15594)" fill="#fff" stroke="#6f7a82" stroke-width="2"><circle cx="17.5" cy="17.5" r="17.5" stroke="none"/><circle cx="17.5" cy="17.5" r="16.5" fill="none"/></g><g transform="translate(6857 -15594)" fill="#fff" stroke="#6f7a82" stroke-width="2"><circle cx="20" cy="20" r="20" stroke="none"/><circle cx="20" cy="20" r="19" fill="none"/></g><g transform="translate(6877 -15584)" fill="#fff" stroke="#6f7a82" stroke-width="2"><circle cx="22.5" cy="22.5" r="22.5" stroke="none"/><circle cx="22.5" cy="22.5" r="21.5" fill="none"/></g><g transform="translate(6891 -15609)" fill="#fff" stroke="#6f7a82" stroke-width="2"><circle cx="25" cy="25" r="25" stroke="none"/><circle cx="25" cy="25" r="24" fill="none"/></g><g transform="translate(6902 -15596)" fill="#6f7a82" stroke="#707070" stroke-width="1"><rect width="8" height="19" rx="2" stroke="none"/><rect x="0.5" y="0.5" width="7" height="18" rx="1.5" fill="none"/></g><g transform="translate(6922 -15596)" fill="#6f7a82" stroke="#707070" stroke-width="1"><rect width="8" height="19" rx="2" stroke="none"/><rect x="0.5" y="0.5" width="7" height="18" rx="1.5" fill="none"/></g><g transform="translate(6820 -15577)" fill="#fff" stroke="#6f7a82" stroke-width="2"><circle cx="15" cy="15" r="15" stroke="none"/><circle cx="15" cy="15" r="14" fill="none"/></g><g transform="translate(6833 -15594)" fill="#fff" stroke="#6f7a82" stroke-width="2"><circle cx="17.5" cy="17.5" r="17.5" stroke="none"/><circle cx="17.5" cy="17.5" r="16.5" fill="none"/></g><g transform="translate(6857 -15594)" fill="#fff" stroke="#6f7a82" stroke-width="2"><circle cx="20" cy="20" r="20" stroke="none"/><circle cx="20" cy="20" r="19" fill="none"/></g><g transform="translate(6877 -15584)" fill="#fff" stroke="#6f7a82" stroke-width="2"><circle cx="22.5" cy="22.5" r="22.5" stroke="none"/><circle cx="22.5" cy="22.5" r="21.5" fill="none"/></g><g transform="translate(6891 -15609)" fill="#fff" stroke="#6f7a82" stroke-width="2"><circle cx="25" cy="25" r="25" stroke="none"/><circle cx="25" cy="25" r="24" fill="none"/></g><g transform="translate(6902 -15596)" fill="#6f7a82" stroke="#707070" stroke-width="1"><rect width="8" height="19" rx="2" stroke="none"/><rect x="0.5" y="0.5" width="7" height="18" rx="1.5" fill="none"/></g><g transform="translate(6922 -15596)" fill="#6f7a82" stroke="#707070" stroke-width="1"><rect width="8" height="19" rx="2" stroke="none"/><rect x="0.5" y="0.5" width="7" height="18" rx="1.5" fill="none"/></g></g></svg>